<svg width="50.000000" height="44.386230" viewBox="0 0 50 44.3862" fill="none" xmlns="http://www.w3.org/2000/svg" xmlns:xlink="http://www.w3.org/1999/xlink">
	<desc>
			Created with Pixso.
	</desc>
	<defs/>
	<path d="M50 22.19C50 34.45 38.8 44.38 25 44.38C11.19 44.38 0 34.45 0 22.19C0 9.93 11.19 0 25 0C38.8 0 50 9.93 50 22.19ZM16.74 20.16C14.23 21.13 11.66 22.12 9.31 23.27C8.08 24.07 9.71 24.64 11.24 25.17C11.49 25.25 11.73 25.33 11.95 25.42C12.14 25.47 12.33 25.52 12.53 25.58C14.23 26.06 16.13 26.6 17.79 25.79C20.5 24.4 23.07 22.8 25.63 21.2C26.47 20.68 27.31 20.15 28.15 19.64C28.19 19.61 28.24 19.59 28.29 19.56C29 19.15 30.62 18.21 30.02 19.5C28.61 20.87 27.09 22.09 25.57 23.31C24.54 24.13 23.51 24.96 22.51 25.84C21.63 26.47 20.72 27.74 21.7 28.63C23.96 30.03 26.26 31.4 28.55 32.77C29.3 33.22 30.04 33.67 30.79 34.11C32.05 35.01 34.02 34.28 34.3 32.89C34.43 32.24 34.55 31.6 34.67 30.96C35.36 27.4 36.04 23.84 36.65 20.28C36.73 19.72 36.82 19.16 36.92 18.6C37.14 17.24 37.37 15.88 37.44 14.52C37.26 13.16 35.4 13.46 34.37 13.76C29.05 15.56 23.78 17.49 18.54 19.45C17.94 19.69 17.34 19.92 16.74 20.16Z" fill="#E4E4E4" fill-opacity="1.000000" fill-rule="evenodd"/>
</svg>
