<svg width="60.000000" height="55.833252" viewBox="0 0 60 55.8333" fill="none" xmlns="http://www.w3.org/2000/svg" xmlns:xlink="http://www.w3.org/1999/xlink">
	<desc>
			Created with Pixso.
	</desc>
	<defs/>
	<path d="M9.58 8.92C6.25 12.03 6.25 17.03 6.25 27.03L6.25 28.8C6.25 38.8 6.25 43.8 9.58 46.91C12.92 50.01 18.3 50.01 29.05 50.01L30.95 50.01C41.69 50.01 47.07 50.01 50.41 46.91C53.75 43.8 53.75 38.8 53.75 28.8L53.75 27.03C53.75 17.03 53.75 12.03 50.41 8.92C47.07 5.81 41.69 5.81 30.95 5.81L29.05 5.81C18.3 5.81 12.92 5.81 9.58 8.92ZM14.25 19.3C14.5 30.78 20.66 37.68 31.47 37.68L32.08 37.68L32.08 31.11C36.05 31.48 39.06 34.19 40.26 37.68L45.87 37.68C44.33 32.46 40.28 29.57 37.75 28.47C40.28 27.1 43.84 23.79 44.68 19.3L39.59 19.3C38.48 22.95 35.2 26.26 32.08 26.57L32.08 19.3L26.99 19.3L26.99 32.03C23.83 31.3 19.84 27.73 19.66 19.3L14.25 19.3Z" fill="#E4E4E4" fill-opacity="1.000000" fill-rule="evenodd"/>
</svg>
